<?xml version="1.0" encoding="UTF-8"?>
<!DOCTYPE svg PUBLIC "-//W3C//DTD SVG 1.1//EN" "http://www.w3.org/Graphics/SVG/1.1/DTD/svg11.dtd">
<!-- Creator: CorelDRAW 2019 (64-Bit) -->
<svg xmlns="http://www.w3.org/2000/svg" xml:space="preserve" width="1919px" height="1919px" version="1.1" style="shape-rendering:geometricPrecision; text-rendering:geometricPrecision; image-rendering:optimizeQuality; fill-rule:evenodd; clip-rule:evenodd"
viewBox="0 0 17.12 17.12"
 xmlns:xlink="http://www.w3.org/1999/xlink"
 xmlns:xodm="http://www.corel.com/coreldraw/odm/2003">
 <defs>
  <style type="text/css">
   <![CDATA[
    .fil0 {fill:black}
    .fil1 {fill:#E6E6E6;fill-rule:nonzero}
   ]]>
  </style>
   <clipPath id="id0">
    <rect x="5.71" width="5.71" height="5.71"/>
   </clipPath>
    <clipPath id="id1">
     <rect transform="matrix(-0.128071 -0 -0 0.12807 11.4167 1.28315E-07)" width="44.58" height="44.58"/>
    </clipPath>
   <clipPath id="id2">
    <rect width="5.71" height="5.71"/>
   </clipPath>
   <clipPath id="id3">
    <rect x="5.71" y="5.71" width="5.71" height="5.7"/>
   </clipPath>
    <clipPath id="id4">
     <rect transform="matrix(-0.128071 -0 -0 -0.12807 11.4167 11.4145)" width="44.58" height="44.58"/>
    </clipPath>
   <clipPath id="id5">
    <rect y="5.71" width="5.71" height="5.7"/>
   </clipPath>
   <clipPath id="id6">
    <rect x="11.41" width="5.71" height="5.71"/>
   </clipPath>
    <clipPath id="id7">
     <rect x="11.41" width="5.71" height="5.71"/>
    </clipPath>
   <clipPath id="id8">
    <rect x="11.41" y="5.71" width="5.71" height="5.7"/>
   </clipPath>
    <clipPath id="id9">
     <rect transform="matrix(0.128071 -0 -0 -0.12807 11.4147 11.4145)" width="44.58" height="44.58"/>
    </clipPath>
   <clipPath id="id10">
    <rect x="5.71" y="11.41" width="5.71" height="5.71"/>
   </clipPath>
    <clipPath id="id11">
     <rect transform="matrix(-0.128071 -0 -0 0.12807 11.4167 11.4145)" width="44.58" height="44.58"/>
    </clipPath>
   <clipPath id="id12">
    <rect y="11.41" width="5.71" height="5.71"/>
   </clipPath>
   <clipPath id="id13">
    <rect x="11.41" y="11.41" width="5.71" height="5.71"/>
   </clipPath>
    <clipPath id="id14">
     <rect x="11.41" y="11.41" width="5.71" height="5.71"/>
    </clipPath>
 </defs>
 <g id="Layer_x0020_1">
  <metadata id="CorelCorpID_0Corel-Layer"/>
  <g style="clip-path:url(#id0)">
   <image style="clip-path:url(#id1)" transform="matrix(-0.128071 -0 -0 0.12807 11.4167 1.28315E-07)" x="0" y="0" width="44.58" height="44.58" xlink:href="background_Images\background_ImgID1.png"/>
  </g>
  <g style="clip-path:url(#id2)">
   <image x="0" y="0" width="5.71" height="5.71" xlink:href="background_Images\background_ImgID2.png"/>
  </g>
  <g style="clip-path:url(#id3)">
   <image style="clip-path:url(#id4)" transform="matrix(-0.128071 -0 -0 -0.12807 11.4167 11.4145)" x="0" y="0" width="44.58" height="44.58" xlink:href="background_Images\background_ImgID3.png"/>
  </g>
  <g style="clip-path:url(#id5)">
   <image transform="matrix(0.128071 -0 -0 -0.12807 -1.71148E-06 11.4145)" x="0" y="0" width="44.58" height="44.58" xlink:href="background_Images\background_ImgID4.png"/>
  </g>
  <g style="clip-path:url(#id6)">
   <image style="clip-path:url(#id7)" x="11.41" y="0" width="5.71" height="5.71" xlink:href="background_Images\background_ImgID5.png"/>
  </g>
  <g style="clip-path:url(#id8)">
   <image style="clip-path:url(#id9)" transform="matrix(0.128071 -0 -0 -0.12807 11.4147 11.4145)" x="0" y="0" width="44.58" height="44.58" xlink:href="background_Images\background_ImgID6.png"/>
  </g>
  <g id="_1813165494928">
   <polygon class="fil0" points="9.41,2.57 9.98,3.14 10.55,2.57 11.12,3.14 11.69,2.57 11.12,2 11.69,1.43 11.12,0.86 10.55,1.43 9.98,0.86 9.41,1.43 8.84,0.86 8.27,1.43 7.7,0.86 7.13,1.43 6.56,0.86 5.99,1.43 5.42,0.86 4.85,1.43 5.42,2 4.85,2.57 5.42,3.14 5.99,2.57 6.56,3.14 7.13,2.57 7.7,3.14 8.27,2.57 8.84,3.14 "/>
   <path class="fil1" d="M5.84 1.86l0.1 0c0.02,0 0.04,0.01 0.06,0.01 0.01,0.01 0.03,0.02 0.03,0.04 0.01,0.02 0.02,0.04 0.02,0.06 0,0.02 -0.01,0.04 -0.02,0.05 -0.01,0.02 -0.02,0.03 -0.04,0.04 -0.01,0.01 -0.03,0.01 -0.05,0.01l-0.03 0 0 0.12 -0.07 0 0 -0.33zm0.1 0.16c0.01,0 0.02,-0.01 0.03,-0.02 0,0 0.01,-0.02 0.01,-0.03 0,-0.02 -0.01,-0.03 -0.01,-0.04 -0.01,-0.01 -0.02,-0.01 -0.03,-0.01l-0.03 0 0 0.1 0.03 0z"/>
   <path id="1" class="fil1" d="M6.19 2.19c-0.04,0 -0.07,-0.01 -0.08,-0.03 -0.02,-0.02 -0.03,-0.05 -0.03,-0.08l0 -0.22 0.07 0 0 0.22c0,0.02 0,0.03 0.01,0.04 0.01,0.01 0.02,0.01 0.03,0.01 0.01,0 0.02,0 0.03,-0.01 0.01,-0.01 0.01,-0.02 0.01,-0.04l0 -0.22 0.07 0 0 0.22c0,0.03 -0.01,0.06 -0.03,0.08 -0.01,0.02 -0.04,0.03 -0.08,0.03z"/>
   <path id="2" class="fil1" d="M6.44 2.19c-0.01,0 -0.03,0 -0.04,-0.01 -0.02,0 -0.03,-0.01 -0.04,-0.03 -0.01,-0.01 -0.02,-0.03 -0.02,-0.06l0.05 -0.02c0.01,0.02 0.01,0.04 0.02,0.05 0.01,0.01 0.02,0.01 0.03,0.01 0.01,0 0.02,0 0.03,-0.01 0,0 0,-0.01 0,-0.02 0,-0.01 0,-0.02 0,-0.03 -0.01,0 -0.01,-0.01 -0.02,-0.01 0,-0.01 -0.01,-0.01 -0.02,-0.02 -0.01,0 -0.01,0 -0.01,0 0,0 0,0 0,0 -0.02,-0.01 -0.03,-0.02 -0.04,-0.03 -0.01,0 -0.02,-0.01 -0.02,-0.02 -0.01,-0.01 -0.01,-0.03 -0.01,-0.04 0,-0.03 0,-0.05 0.02,-0.07 0.01,-0.01 0.04,-0.02 0.07,-0.02 0.02,0 0.04,0 0.06,0.01 0.02,0.02 0.03,0.04 0.04,0.07l-0.06 0.02c0,-0.02 0,-0.03 -0.01,-0.04 -0.01,0 -0.02,-0.01 -0.03,-0.01 -0.01,0 -0.02,0 -0.02,0.01 -0.01,0.01 -0.01,0.01 -0.01,0.02 0,0.01 0,0.01 0.01,0.02 0,0 0.01,0.01 0.01,0.01 0.01,0 0.02,0.01 0.03,0.01 0.01,0.01 0.01,0.01 0.02,0.01 0.01,0.01 0.02,0.02 0.03,0.03 0.01,0 0.02,0.01 0.02,0.03 0.01,0.01 0.01,0.02 0.01,0.04 0,0.02 0,0.04 -0.01,0.05 -0.01,0.02 -0.02,0.03 -0.03,0.04 -0.02,0.01 -0.04,0.01 -0.06,0.01z"/>
   <polygon id="3" class="fil1" points="6.58,1.86 6.65,1.86 6.65,2.19 6.58,2.19 "/>
   <path id="4" class="fil1" d="M6.84 2.13l-0.08 0 -0.01 0.06 -0.07 0 0.08 -0.33 0.09 0 0.07 0.33 -0.07 0 -0.01 -0.06zm-0.01 -0.06l-0.02 -0.12 -0.01 -0.03 0 0 0 0.03 -0.03 0.12 0.06 0z"/>
   <path id="5" class="fil1" d="M6.96 1.86l0.1 0c0.02,0 0.04,0.01 0.06,0.01 0.01,0.01 0.02,0.02 0.03,0.04 0.01,0.02 0.01,0.04 0.01,0.06 0,0.02 0,0.04 -0.01,0.05 -0.01,0.02 -0.02,0.03 -0.04,0.04 -0.01,0.01 -0.03,0.01 -0.05,0.01l-0.03 0 0 0.12 -0.07 0 0 -0.33zm0.09 0.16c0.02,0 0.03,-0.01 0.04,-0.02 0,0 0.01,-0.02 0.01,-0.03 0,-0.02 -0.01,-0.03 -0.01,-0.04 -0.01,-0.01 -0.02,-0.01 -0.03,-0.01l-0.03 0 0 0.1 0.02 0z"/>
   <polygon id="6" class="fil1" points="7.2,1.86 7.27,1.86 7.27,2.19 7.2,2.19 "/>
   <path id="7" class="fil1" d="M7.42 2.19c-0.02,0 -0.03,0 -0.05,-0.01 -0.01,0 -0.02,-0.01 -0.04,-0.03 -0.01,-0.01 -0.01,-0.03 -0.02,-0.06l0.06 -0.02c0,0.02 0.01,0.04 0.02,0.05 0.01,0.01 0.02,0.01 0.03,0.01 0.01,0 0.02,0 0.02,-0.01 0.01,0 0.01,-0.01 0.01,-0.02 0,-0.01 0,-0.02 -0.01,-0.03 0,0 0,-0.01 -0.01,-0.01 -0.01,-0.01 -0.02,-0.01 -0.03,-0.02 0,0 0,0 0,0 0,0 0,0 -0.01,0 -0.01,-0.01 -0.02,-0.02 -0.03,-0.03 -0.01,0 -0.02,-0.01 -0.03,-0.02 0,-0.01 -0.01,-0.03 -0.01,-0.04 0,-0.03 0.01,-0.05 0.03,-0.07 0.01,-0.01 0.03,-0.02 0.07,-0.02 0.02,0 0.04,0 0.06,0.01 0.01,0.02 0.03,0.04 0.03,0.07l-0.05 0.02c0,-0.02 -0.01,-0.03 -0.01,-0.04 -0.01,0 -0.02,-0.01 -0.03,-0.01 -0.01,0 -0.02,0 -0.02,0.01 -0.01,0.01 -0.01,0.01 -0.01,0.02 0,0.01 0,0.01 0,0.02 0.01,0 0.01,0.01 0.02,0.01 0,0 0.01,0.01 0.02,0.01 0.01,0.01 0.02,0.01 0.02,0.01 0.02,0.01 0.03,0.02 0.04,0.03 0.01,0 0.01,0.01 0.02,0.03 0.01,0.01 0.01,0.02 0.01,0.04 0,0.02 -0.01,0.04 -0.01,0.05 -0.01,0.02 -0.02,0.03 -0.04,0.04 -0.01,0.01 -0.03,0.01 -0.05,0.01z"/>
   <path id="8" class="fil1" d="M7.79 2.13l-0.08 0 -0.01 0.06 -0.08 0 0.08 -0.33 0.09 0 0.08 0.33 -0.07 0 -0.01 -0.06zm-0.01 -0.06l-0.03 -0.12 0 -0.03 0 0 -0.01 0.03 -0.02 0.12 0.06 0z"/>
   <polygon id="9" class="fil1" points="7.91,1.92 7.85,1.92 7.85,1.86 8.05,1.86 8.05,1.92 7.98,1.92 7.98,2.19 7.91,2.19 "/>
   <polygon id="10" class="fil1" points="8.32,1.86 8.32,2.19 8.23,2.19 8.14,1.93 8.14,2 8.14,2.19 8.08,2.19 8.08,1.86 8.17,1.86 8.26,2.11 8.25,2.05 8.25,1.86 "/>
   <path id="11" class="fil1" d="M8.52 2.13l-0.08 0 -0.01 0.06 -0.08 0 0.08 -0.33 0.09 0 0.08 0.33 -0.07 0 -0.01 -0.06zm-0.01 -0.06l-0.03 -0.12 0 -0.03 0 0 -0.01 0.03 -0.02 0.12 0.06 0z"/>
   <path id="12" class="fil1" d="M8.73 2.19c-0.04,0 -0.07,-0.01 -0.09,-0.03 -0.01,-0.02 -0.02,-0.05 -0.02,-0.08l0 -0.22 0.07 0 0 0.22c0,0.02 0,0.03 0.01,0.04 0.01,0.01 0.01,0.01 0.03,0.01 0.01,0 0.02,0 0.03,-0.01 0.01,-0.01 0.01,-0.02 0.01,-0.04l0 -0.22 0.07 0 0 0.22c0,0.03 -0.01,0.06 -0.03,0.08 -0.02,0.02 -0.04,0.03 -0.08,0.03z"/>
   <path id="13" class="fil1" d="M8.91 2.19c-0.01,0 -0.02,0 -0.03,0 0,0 -0.01,0 -0.02,0l0 -0.06c0.01,0 0.01,0 0.01,0 0.01,0 0.01,0 0.02,0 0.02,0 0.03,-0.01 0.03,-0.04l0 -0.23 0.07 0 0 0.23c0,0.02 0,0.04 -0.01,0.06 -0.01,0.01 -0.02,0.02 -0.03,0.03 -0.01,0.01 -0.03,0.01 -0.04,0.01z"/>
   <polygon id="14" class="fil1" points="9.05,1.86 9.12,1.86 9.12,2.19 9.05,2.19 "/>
   <polygon id="15" class="fil1" points="9.42,1.86 9.42,2.19 9.33,2.19 9.24,1.93 9.25,2 9.25,2.19 9.18,2.19 9.18,1.86 9.27,1.86 9.36,2.11 9.35,2.05 9.35,1.86 "/>
   <path id="16" class="fil1" d="M9.62 2.13l-0.08 0 -0.01 0.06 -0.07 0 0.07 -0.33 0.09 0 0.08 0.33 -0.07 0 -0.01 -0.06zm-0.01 -0.06l-0.03 -0.12 0 -0.03 0 0 0 0.03 -0.03 0.12 0.06 0z"/>
   <polygon id="17" class="fil1" points="9.74,1.86 9.85,1.86 9.9,2.11 9.94,1.86 10.05,1.86 10.05,2.19 9.98,2.19 9.98,2.04 9.99,1.92 9.98,1.92 9.92,2.19 9.87,2.19 9.81,1.92 9.81,1.92 9.81,2.04 9.81,2.19 9.74,2.19 "/>
   <path id="18" class="fil1" d="M10.25 2.13l-0.08 0 -0.01 0.06 -0.07 0 0.07 -0.33 0.09 0 0.08 0.33 -0.07 0 -0.01 -0.06zm-0.01 -0.06l-0.02 -0.12 -0.01 -0.03 0 0 0 0.03 -0.03 0.12 0.06 0z"/>
   <path id="19" class="fil1" d="M10.45 2.19c-0.01,0 -0.03,0 -0.04,-0.01 -0.02,0 -0.03,-0.01 -0.04,-0.03 -0.01,-0.01 -0.02,-0.03 -0.02,-0.06l0.05 -0.02c0.01,0.02 0.01,0.04 0.02,0.05 0.01,0.01 0.02,0.01 0.03,0.01 0.01,0 0.02,0 0.03,-0.01 0,0 0,-0.01 0,-0.02 0,-0.01 0,-0.02 0,-0.03 -0.01,0 -0.01,-0.01 -0.02,-0.01 0,-0.01 -0.01,-0.01 -0.02,-0.02 0,0 -0.01,0 -0.01,0 0,0 0,0 0,0 -0.02,-0.01 -0.03,-0.02 -0.04,-0.03 -0.01,0 -0.02,-0.01 -0.02,-0.02 -0.01,-0.01 -0.01,-0.03 -0.01,-0.04 0,-0.03 0,-0.05 0.02,-0.07 0.02,-0.01 0.04,-0.02 0.07,-0.02 0.02,0 0.04,0 0.06,0.01 0.02,0.02 0.03,0.04 0.04,0.07l-0.06 0.02c0,-0.02 0,-0.03 -0.01,-0.04 -0.01,0 -0.02,-0.01 -0.03,-0.01 -0.01,0 -0.01,0 -0.02,0.01 -0.01,0.01 -0.01,0.01 -0.01,0.02 0,0.01 0,0.01 0.01,0.02 0,0 0.01,0.01 0.01,0.01 0.01,0 0.02,0.01 0.03,0.01 0.01,0.01 0.01,0.01 0.02,0.01 0.01,0.01 0.02,0.02 0.03,0.03 0.01,0 0.02,0.01 0.02,0.03 0.01,0.01 0.01,0.02 0.01,0.04 0,0.02 0,0.04 -0.01,0.05 -0.01,0.02 -0.02,0.03 -0.03,0.04 -0.02,0.01 -0.04,0.01 -0.06,0.01z"/>
  </g>
  <g style="clip-path:url(#id10)">
   <image style="clip-path:url(#id11)" transform="matrix(-0.128071 -0 -0 0.12807 11.4167 11.4145)" x="0" y="0" width="44.58" height="44.58" xlink:href="background_Images\background_ImgID7.png"/>
  </g>
  <g style="clip-path:url(#id12)">
   <image x="0" y="11.41" width="5.71" height="5.71" xlink:href="background_Images\background_ImgID8.png"/>
  </g>
  <g style="clip-path:url(#id13)">
   <image style="clip-path:url(#id14)" x="11.41" y="11.41" width="5.71" height="5.71" xlink:href="background_Images\background_ImgID9.png"/>
  </g>
 </g>
</svg>
