<?xml version="1.0" encoding="UTF-8"?>
<!DOCTYPE svg PUBLIC "-//W3C//DTD SVG 1.1//EN" "http://www.w3.org/Graphics/SVG/1.1/DTD/svg11.dtd">
<!-- Creator: CorelDRAW 2019 (64-Bit) -->
<svg xmlns="http://www.w3.org/2000/svg" xml:space="preserve" width="2000px" height="1251px" version="1.1" style="shape-rendering:geometricPrecision; text-rendering:geometricPrecision; image-rendering:optimizeQuality; fill-rule:evenodd; clip-rule:evenodd"
viewBox="0 0 72.92 45.62"
 xmlns:xlink="http://www.w3.org/1999/xlink"
 xmlns:xodm="http://www.corel.com/coreldraw/odm/2003">
 <defs>
  <style type="text/css">
   
    .str0 {stroke:#373435;stroke-width:0.02;stroke-miterlimit:2.61313}
    .fil0 {fill:black}
    .fil1 {fill:white}
    .fil5 {fill:#FEFEFE;fill-rule:nonzero}
    .fil3 {fill:#800C0A;fill-rule:nonzero}
    .fil4 {fill:#D60F0C;fill-rule:nonzero}
    .fil2 {fill:white;fill-rule:nonzero}
   
  </style>
    <clipPath id="id0">
     <rect x="45.61" width="27.31" height="45.62"/>
    </clipPath>
     <clipPath id="id1">
      <rect transform="matrix(-0.981634 -0 -0 0.981634 72.9155 1.27541E-06)" width="27.81" height="46.47"/>
     </clipPath>
    <clipPath id="id2">
     <rect width="45.62" height="45.62"/>
    </clipPath>
 </defs>
 <g id="Layer_x0020_1">
  <metadata id="CorelCorpID_0Corel-Layer"/>
  <g id="_1813169599024">
   <g style="clip-path:url(#id0)">
    <image style="clip-path:url(#id1)" transform="matrix(-0.981634 -0 -0 0.981634 91.2313 1.27541E-06)" x="0" y="0" width="46.47" height="46.47" xlink:href="backgr_Images\backgr_ImgID1.png"/>
   </g>
   <g style="clip-path:url(#id2)">
    <image x="0" y="0" width="45.62" height="45.62" xlink:href="backgr_Images\backgr_ImgID2.png"/>
   </g>
  </g>
  <g id="_1813169599440">
   <polygon class="fil0 str0" points="31.88,13.67 36.49,18.28 41.1,13.67 50.24,22.81 41.1,31.95 36.49,27.34 31.88,31.95 22.74,22.81 "/>
   <g id="RI_10_x0020_metu.cdr">
    <g>
     <g>
      <path class="fil1" d="M28.65 24.54l0 -3.71c0,-0.65 0.53,-1.19 1.19,-1.19l3.84 0c0.65,0 1.18,0.54 1.18,1.19l0 0.6 -0.65 0 0 -0.6c0,-0.29 -0.24,-0.53 -0.53,-0.53l-3.84 0c-0.29,0 -0.53,0.24 -0.53,0.53l0 3.71 -0.66 0z"/>
      <path class="fil1" d="M29.76 21.93l0 1.43c0,0.65 0.53,1.18 1.19,1.18l3.84 0c0.03,0 0.06,0 0.09,0l0 -0.66c-0.03,0 -0.06,0.01 -0.09,0.01l-3.84 0c-0.29,0 -0.53,-0.24 -0.53,-0.53l0 -1.43 -0.66 0z"/>
      <polygon class="fil1" points="29.76,21.13 29.76,21.71 30.42,21.71 30.42,21.13 "/>
     </g>
     <path class="fil2" d="M29.04 25.15l-0.27 0 0 0.14 0.27 0c0.01,0 0.03,0 0.04,-0.01 0.01,0 0.01,-0.01 0.01,-0.03l0 -0.06c0,-0.03 -0.02,-0.04 -0.05,-0.04zm-0.39 0.42l0 -0.51 0.44 0c0.08,0 0.12,0.03 0.12,0.1l0 0.12c0,0.07 -0.04,0.1 -0.12,0.1l-0.07 0 0.24 0.19 -0.17 0 -0.21 -0.19 -0.11 0 0 0.19 -0.12 0zm0.8 0l0 -0.51 0.53 0 0 0.09 -0.41 0 0 0.11 0.24 0 0 0.09 -0.24 0 0 0.13 0.41 0 0 0.09 -0.53 0zm0.75 0l0 -0.51 0.13 0 0 0.21 0.28 -0.21 0.18 0 -0.35 0.24 0.39 0.27 -0.19 0 -0.31 -0.22 0 0.22 -0.13 0zm0.8 0l0 -0.51 0.12 0 0 0.42 0.39 0 0 0.09 -0.51 0zm0.8 -0.2l0.22 0 -0.11 -0.21 -0.11 0.21zm-0.23 0.2l0.29 -0.51 0.11 0 0.3 0.51 -0.13 0 -0.07 -0.11 -0.32 0 -0.06 0.11 -0.12 0zm0.87 0l0 -0.51 0.09 0 0.25 0.31 0.23 -0.31 0.1 0 0 0.51 -0.11 0 0 -0.31c0,-0.02 0,-0.03 0,-0.06 0,0.01 -0.01,0.03 -0.03,0.05l-0.19 0.26 -0.03 0 -0.19 -0.26c-0.01,-0.01 -0.02,-0.03 -0.03,-0.05 0,0.02 0,0.04 0,0.06l0 0.31 -0.09 0zm0.91 -0.39c0,-0.05 0.01,-0.08 0.03,-0.1 0.02,-0.01 0.05,-0.02 0.1,-0.02l0.38 0c0.05,0 0.08,0.01 0.1,0.02 0.02,0.02 0.03,0.05 0.03,0.1l0 0.27c0,0.05 -0.01,0.08 -0.03,0.1 -0.02,0.02 -0.05,0.02 -0.1,0.02l-0.38 0c-0.05,0 -0.08,0 -0.1,-0.02 -0.02,-0.02 -0.03,-0.05 -0.03,-0.1l0 -0.27zm0.12 0.3l0.4 0 0 -0.33 -0.4 0 0 0.33zm1.22 -0.33l-0.34 0 0 0.11 0.32 0c0.05,0 0.08,0.01 0.1,0.02 0.02,0.02 0.03,0.05 0.03,0.1l0 0.07c0,0.05 -0.01,0.08 -0.03,0.1 -0.02,0.02 -0.05,0.02 -0.1,0.02l-0.32 0c-0.05,0 -0.08,0 -0.1,-0.02 -0.02,-0.02 -0.03,-0.05 -0.03,-0.1l0 -0.01 0.11 -0.02 0 0.06 0.36 0 0 -0.12 -0.32 0c-0.05,0 -0.08,-0.01 -0.1,-0.02 -0.02,-0.02 -0.02,-0.05 -0.02,-0.1l0 -0.06c0,-0.05 0,-0.08 0.02,-0.1 0.02,-0.01 0.05,-0.02 0.1,-0.02l0.3 0c0.04,0 0.07,0.01 0.09,0.02 0.02,0.02 0.03,0.05 0.03,0.09l0 0.01 -0.1 0.03 0 -0.06zm-6.04 1.35l0 -0.52 0.12 0 0 0.52 -0.12 0zm0.43 0l0 -0.52 0.08 0 0.36 0.3c0.03,0.02 0.05,0.04 0.06,0.06l0 -0.06c0,-0.01 0,-0.02 0,-0.03l0 -0.27 0.1 0 0 0.52 -0.08 0 -0.38 -0.32c0,-0.01 -0.01,-0.01 -0.02,-0.03 -0.01,0 -0.02,-0.01 -0.02,-0.02 0,0.04 0,0.07 0,0.09l0 0.28 -0.1 0zm0.99 0c-0.05,0 -0.09,-0.01 -0.1,-0.03 -0.02,-0.02 -0.03,-0.05 -0.03,-0.1l0 -0.1 0.12 -0.03 0 0.16 0.24 0 0 -0.42 0.12 0 0 0.39c0,0.05 -0.01,0.08 -0.03,0.1 -0.02,0.02 -0.05,0.03 -0.1,0.03l-0.22 0zm0.63 0l0 -0.52 0.53 0 0 0.09 -0.41 0 0 0.11 0.24 0 0 0.09 -0.24 0 0 0.13 0.42 0 0 0.1 -0.54 0zm0.8 0l0 -0.52 0.13 0 0 0.21 0.28 -0.21 0.18 0 -0.35 0.24 0.39 0.28 -0.2 0 -0.3 -0.23 0 0.23 -0.13 0zm1.24 -0.43l-0.32 0 0 0.33 0.32 0 0 -0.11 0.12 0.02 0 0.06c0,0.05 -0.01,0.08 -0.03,0.1 -0.01,0.02 -0.05,0.03 -0.1,0.03l-0.3 0c-0.05,0 -0.09,-0.01 -0.11,-0.03 -0.01,-0.02 -0.02,-0.05 -0.02,-0.1l0 -0.27c0,-0.05 0.01,-0.08 0.03,-0.1 0.01,-0.01 0.05,-0.02 0.1,-0.02l0.3 0c0.05,0 0.09,0.01 0.1,0.02 0.02,0.02 0.03,0.05 0.03,0.1l0 0.05 -0.12 0.02 0 -0.1zm0.41 0.43l0 -0.52 0.12 0 0 0.52 -0.12 0zm0.51 0c-0.05,0 -0.08,-0.01 -0.1,-0.03 -0.02,-0.02 -0.03,-0.05 -0.03,-0.1l0 -0.1 0.12 -0.03 0 0.16 0.24 0 0 -0.42 0.12 0 0 0.39c0,0.05 -0.01,0.08 -0.03,0.1 -0.02,0.02 -0.05,0.03 -0.1,0.03l-0.22 0zm0.75 -0.21l0.23 0 -0.11 -0.21 -0.12 0.21zm-0.23 0.21l0.29 -0.52 0.12 0 0.29 0.52 -0.13 0 -0.06 -0.12 -0.33 0 -0.06 0.12 -0.12 0z"/>
    </g>
    <path class="fil2" d="M40.61 20c0.31,-0.12 0.65,-0.13 0.97,-0.05 0.26,0.06 0.49,0.23 0.66,0.44 0.13,0.17 0.21,0.39 0.24,0.61 0.02,0.2 0.02,0.4 0.01,0.61 0,0.07 0,0.14 0,0.2l-0.82 0.28c0,-0.28 0,-0.57 0,-0.85 0,-0.15 -0.03,-0.32 -0.14,-0.43 -0.12,-0.12 -0.3,-0.15 -0.46,-0.13 -0.12,0.02 -0.24,0.09 -0.3,0.19 -0.08,0.11 -0.09,0.25 -0.09,0.38 0,0.39 0,0.78 0,1.17l-0.83 0.28c0,-0.46 0,-0.93 0,-1.39 0,-0.2 0.01,-0.4 0.08,-0.59 0.11,-0.32 0.37,-0.59 0.68,-0.72z"/>
    <path class="fil2" d="M39.11 19.92c0.19,0 0.38,0 0.57,0l0.01 5.43 -0.83 0c0,-1.42 0,-2.84 0,-4.25 -0.31,-0.01 -0.62,0 -0.93,-0.01 0,-0.19 0,-0.38 0,-0.57 0.35,-0.02 0.71,-0.11 0.98,-0.35 0.08,-0.07 0.15,-0.15 0.2,-0.25z"/>
    <path class="fil3" d="M43.37 23.01l-0.15 0.26c-0.2,0.07 -0.39,0.13 -0.59,0.2l-0.02 0.01c0.06,-0.09 0.11,-0.18 0.17,-0.27l0.59 -0.2z"/>
    <path class="fil2" d="M41.67 23.89c0.28,-0.09 0.55,-0.18 0.82,-0.27 0,0.34 0.04,0.69 -0.07,1.02 -0.09,0.29 -0.3,0.55 -0.58,0.69 -0.2,0.11 -0.44,0.16 -0.67,0.15 -0.3,0.01 -0.61,-0.08 -0.85,-0.27 -0.24,-0.18 -0.39,-0.45 -0.44,-0.75l-0.03 -0.27c0.12,-0.04 0.24,-0.08 0.35,-0.12l0.48 -0.16c0,0.2 -0.03,0.43 0.09,0.6 0.1,0.17 0.32,0.22 0.5,0.19 0.14,-0.02 0.27,-0.1 0.34,-0.23 0.09,-0.18 0.05,-0.39 0.06,-0.58z"/>
    <polygon class="fil4" points="43.37,21.52 43.37,23.01 39.85,24.19 39.85,22.7 "/>
    <path class="fil4" d="M45.71 22.42c0.27,-0.1 0.54,-0.19 0.81,-0.28 -0.19,0.31 -0.45,0.62 -0.66,0.93l0.66 0.55 -3.91 1.3 0 -1.44c0.42,-0.15 0.85,-0.3 1.27,-0.44 0.27,-0.09 1.56,-0.53 1.83,-0.62z"/>
    <polygon class="fil5" points="40.39,22.69 40.63,22.61 40.73,23.31 40.84,22.54 41.08,22.46 41.08,23.41 40.92,23.46 40.92,23.03 40.94,22.68 40.93,22.68 40.8,23.51 40.67,23.55 40.54,22.82 40.53,22.82 40.55,23.16 40.54,23.59 40.39,23.64 "/>
    <polygon id="1" class="fil5" points="41.26,22.4 41.63,22.28 41.63,22.45 41.42,22.53 41.42,22.73 41.61,22.67 41.61,22.85 41.42,22.91 41.42,23.12 41.63,23.05 41.63,23.23 41.26,23.35 "/>
    <polygon id="2" class="fil5" points="41.86,22.38 41.71,22.43 41.71,22.25 42.16,22.1 42.16,22.28 42.02,22.33 42.02,23.1 41.86,23.16 "/>
    <path id="3" class="fil5" d="M42.67 22.85c-0.05,0.07 -0.08,0.12 -0.08,0.17 0,0.01 0.01,0.03 0.01,0.03 0.01,0.01 0.02,0.01 0.02,0.01 0.01,0 0.02,-0.01 0.03,-0.02 0,-0.01 0.01,-0.02 0.02,-0.03l0.05 0.05c-0.03,0.06 -0.06,0.1 -0.11,0.11 -0.01,0.01 -0.03,0.01 -0.04,0 -0.02,0 -0.03,-0.01 -0.04,-0.03 -0.01,-0.02 -0.02,-0.04 -0.02,-0.08 0,-0.04 0.01,-0.08 0.03,-0.12 -0.01,0 -0.01,0.01 -0.02,0.01 -0.09,0.03 -0.15,0.02 -0.19,-0.02 -0.04,-0.05 -0.06,-0.12 -0.06,-0.23l0 -0.63 0.16 -0.06 0 0.65c0,0.05 0,0.09 0.02,0.11 0.01,0.02 0.04,0.02 0.07,0.01 0.03,-0.01 0.05,-0.03 0.06,-0.06 0.02,-0.03 0.03,-0.07 0.03,-0.12l0 -0.65 0.16 -0.05 0 0.63c0,0.14 -0.03,0.24 -0.1,0.32z"/>
    <polygon class="fil5" points="43.09,24.09 43.03,24.15 43.03,24.53 42.88,24.58 42.88,23.69 43.03,23.64 43.03,24 43.21,23.58 43.38,23.52 43.19,23.94 43.39,24.42 43.23,24.47 "/>
    <path id="1" class="fil5" d="M43.78 24.12l-0.17 0.06 -0.03 0.17 -0.15 0.05 0.17 -0.95 0.19 -0.06 0.16 0.84 -0.15 0.05 -0.02 -0.16zm-0.03 -0.15l-0.05 -0.31 0 -0.09 -0.01 0 -0.01 0.09 -0.05 0.35 0.12 -0.04z"/>
    <path id="2" class="fil5" d="M44.37 24.09l-0.1 -0.28 -0.01 0 -0.06 0.02 0 0.32 -0.15 0.04 0 -0.89 0.21 -0.07c0.05,-0.02 0.09,-0.02 0.12,0 0.04,0.01 0.06,0.03 0.08,0.07 0.02,0.04 0.02,0.09 0.02,0.15 0,0.05 0,0.1 -0.02,0.15 -0.02,0.05 -0.04,0.09 -0.07,0.12l0.13 0.32 -0.15 0.05zm-0.12 -0.42c0.03,-0.01 0.05,-0.03 0.06,-0.06 0.02,-0.03 0.03,-0.07 0.03,-0.11 0,-0.05 -0.01,-0.08 -0.03,-0.1 -0.01,-0.02 -0.03,-0.02 -0.06,-0.01l-0.05 0.01 0 0.28 0.05 -0.01z"/>
    <polygon id="3" class="fil5" points="44.68,23.26 44.54,23.3 44.54,23.14 44.96,23 44.96,23.16 44.83,23.21 44.83,23.94 44.68,23.99 "/>
    <path id="4" class="fil5" d="M45.27 23.8c-0.08,0.03 -0.14,0.02 -0.18,-0.02 -0.04,-0.04 -0.06,-0.11 -0.06,-0.21l0 -0.6 0.15 -0.05 0 0.61c0,0.05 0.01,0.08 0.03,0.1 0.01,0.02 0.03,0.03 0.06,0.02 0.03,-0.01 0.05,-0.03 0.06,-0.06 0.02,-0.03 0.03,-0.07 0.03,-0.12l0 -0.6 0.15 -0.05 0 0.59c0,0.1 -0.02,0.19 -0.06,0.25 -0.04,0.07 -0.1,0.12 -0.18,0.14z"/>
    <path id="5" class="fil5" d="M45.65 22.77l0.13 -0.04 -0.01 0.61 -0.11 0.03 -0.01 -0.6zm-0.01 0.7l0.14 -0.04 0 0.19 -0.14 0.05 0 -0.2z"/>
    <polygon class="fil2" points="36.54,18.28 36.54,27.39 36.44,27.39 36.44,18.28 "/>
   </g>
  </g>
  <polygon class="fil0" points="41.05,9.12 43.33,11.4 45.61,9.12 47.89,11.4 50.17,9.12 47.89,6.84 50.17,4.56 47.89,2.28 45.61,4.56 43.33,2.28 41.05,4.56 38.77,2.28 36.49,4.56 34.21,2.28 31.93,4.56 29.65,2.28 27.37,4.56 25.09,2.28 22.81,4.56 25.09,6.84 22.81,9.12 25.09,11.4 27.37,9.12 29.65,11.4 31.93,9.12 34.21,11.4 36.49,9.12 38.77,11.4 "/>
  <path class="fil5" d="M26.7 6.26l0.4 0c0.09,0 0.16,0.01 0.22,0.05 0.06,0.03 0.11,0.08 0.15,0.15 0.03,0.06 0.04,0.13 0.04,0.22 0,0.09 -0.01,0.16 -0.05,0.22 -0.04,0.07 -0.09,0.12 -0.15,0.15 -0.07,0.03 -0.14,0.05 -0.23,0.05l-0.1 0 0 0.46 -0.28 0 0 -1.3zm0.37 0.63c0.05,0 0.1,-0.02 0.12,-0.06 0.03,-0.03 0.05,-0.09 0.05,-0.15 0,-0.06 -0.02,-0.11 -0.05,-0.15 -0.02,-0.03 -0.06,-0.05 -0.12,-0.05l-0.09 0 0 0.41 0.09 0z"/>
  <path id="1" class="fil5" d="M28.09 7.58c-0.15,0 -0.26,-0.04 -0.33,-0.12 -0.07,-0.08 -0.11,-0.19 -0.11,-0.33l0 -0.87 0.29 0 0 0.88c0,0.07 0.01,0.12 0.04,0.16 0.02,0.03 0.06,0.05 0.11,0.05 0.06,0 0.1,-0.02 0.13,-0.05 0.03,-0.04 0.04,-0.09 0.04,-0.16l0 -0.88 0.29 0 0 0.86c0,0.15 -0.04,0.26 -0.11,0.34 -0.08,0.08 -0.19,0.12 -0.35,0.12z"/>
  <path id="2" class="fil5" d="M29.12 7.58c-0.07,0 -0.13,-0.01 -0.19,-0.04 -0.06,-0.02 -0.11,-0.06 -0.16,-0.12 -0.04,-0.06 -0.07,-0.13 -0.08,-0.23l0.23 -0.08c0.01,0.08 0.03,0.13 0.07,0.17 0.03,0.04 0.07,0.06 0.12,0.06 0.04,0 0.07,-0.01 0.09,-0.03 0.03,-0.03 0.04,-0.06 0.04,-0.11 0,-0.04 -0.01,-0.07 -0.03,-0.09 -0.01,-0.02 -0.03,-0.04 -0.05,-0.06 -0.03,-0.02 -0.07,-0.04 -0.11,-0.07 -0.01,0 -0.02,0 -0.02,-0.01 -0.01,0 -0.01,0 -0.02,-0.01 -0.06,-0.03 -0.11,-0.06 -0.14,-0.09 -0.04,-0.02 -0.07,-0.06 -0.1,-0.1 -0.03,-0.05 -0.05,-0.1 -0.05,-0.16 0,-0.12 0.04,-0.21 0.1,-0.28 0.06,-0.06 0.15,-0.09 0.28,-0.09 0.09,0 0.17,0.02 0.24,0.07 0.08,0.05 0.12,0.13 0.15,0.24l-0.21 0.08c-0.02,-0.05 -0.03,-0.1 -0.06,-0.13 -0.03,-0.03 -0.06,-0.04 -0.11,-0.04 -0.04,0 -0.07,0.01 -0.09,0.03 -0.02,0.02 -0.03,0.05 -0.03,0.08 0,0.03 0.01,0.05 0.02,0.07 0.02,0.02 0.04,0.03 0.06,0.05 0.02,0.01 0.05,0.03 0.1,0.05 0.04,0.02 0.07,0.04 0.09,0.05 0.05,0.03 0.09,0.06 0.12,0.09 0.04,0.03 0.07,0.07 0.1,0.12 0.02,0.05 0.03,0.11 0.03,0.18 0,0.08 -0.01,0.15 -0.04,0.21 -0.04,0.06 -0.08,0.11 -0.14,0.14 -0.06,0.03 -0.13,0.05 -0.21,0.05z"/>
  <polygon id="3" class="fil5" points="30.07,6.94 29.96,7 29.96,7.56 29.68,7.56 29.68,6.26 29.96,6.26 29.96,6.78 30.3,6.26 30.62,6.26 30.27,6.77 30.64,7.56 30.33,7.56 "/>
  <path id="4" class="fil5" d="M31.34 7.32l-0.32 0 -0.05 0.24 -0.29 0 0.32 -1.3 0.36 0 0.31 1.3 -0.28 0 -0.05 -0.24zm-0.04 -0.23l-0.1 -0.48 -0.01 -0.13 -0.01 0 -0.02 0.13 -0.1 0.48 0.24 0z"/>
  <path id="5" class="fil5" d="M31.83 6.26l0.4 0c0.08,0 0.16,0.01 0.22,0.05 0.06,0.03 0.11,0.08 0.14,0.15 0.04,0.06 0.05,0.13 0.05,0.22 0,0.09 -0.01,0.16 -0.05,0.22 -0.04,0.07 -0.09,0.12 -0.15,0.15 -0.07,0.03 -0.14,0.05 -0.23,0.05l-0.1 0 0 0.46 -0.28 0 0 -1.3zm0.37 0.63c0.05,0 0.09,-0.02 0.12,-0.06 0.03,-0.03 0.05,-0.09 0.05,-0.15 0,-0.06 -0.02,-0.11 -0.05,-0.15 -0.02,-0.03 -0.07,-0.05 -0.12,-0.05l-0.09 0 0 0.41 0.09 0z"/>
  <polygon id="6" class="fil5" points="32.8,6.26 33.08,6.26 33.08,7.56 32.8,7.56 "/>
  <path id="7" class="fil5" d="M33.67 7.58c-0.06,0 -0.13,-0.01 -0.19,-0.04 -0.06,-0.02 -0.11,-0.06 -0.15,-0.12 -0.05,-0.06 -0.08,-0.13 -0.09,-0.23l0.23 -0.08c0.01,0.08 0.04,0.13 0.07,0.17 0.04,0.04 0.08,0.06 0.13,0.06 0.04,0 0.07,-0.01 0.09,-0.03 0.02,-0.03 0.03,-0.06 0.03,-0.11 0,-0.04 -0.01,-0.07 -0.02,-0.09 -0.02,-0.02 -0.04,-0.04 -0.06,-0.06 -0.02,-0.02 -0.06,-0.04 -0.11,-0.07 -0.01,0 -0.01,0 -0.02,-0.01 0,0 -0.01,0 -0.01,-0.01 -0.06,-0.03 -0.11,-0.06 -0.15,-0.09 -0.04,-0.02 -0.07,-0.06 -0.1,-0.1 -0.03,-0.05 -0.04,-0.1 -0.04,-0.16 0,-0.12 0.03,-0.21 0.09,-0.28 0.06,-0.06 0.16,-0.09 0.28,-0.09 0.09,0 0.18,0.02 0.25,0.07 0.07,0.05 0.12,0.13 0.14,0.24l-0.21 0.08c-0.01,-0.05 -0.03,-0.1 -0.06,-0.13 -0.02,-0.03 -0.06,-0.04 -0.11,-0.04 -0.04,0 -0.07,0.01 -0.09,0.03 -0.02,0.02 -0.03,0.05 -0.03,0.08 0,0.03 0.01,0.05 0.02,0.07 0.02,0.02 0.04,0.03 0.06,0.05 0.03,0.01 0.06,0.03 0.1,0.05 0.04,0.02 0.07,0.04 0.09,0.05 0.05,0.03 0.09,0.06 0.13,0.09 0.03,0.03 0.06,0.07 0.09,0.12 0.02,0.05 0.04,0.11 0.04,0.18 0,0.08 -0.02,0.15 -0.05,0.21 -0.03,0.06 -0.08,0.11 -0.14,0.14 -0.06,0.03 -0.13,0.05 -0.21,0.05z"/>
  <path id="8" class="fil5" d="M35.16 7.32l-0.33 0 -0.04 0.24 -0.29 0 0.31 -1.3 0.36 0 0.32 1.3 -0.28 0 -0.05 -0.24zm-0.05 -0.23l-0.09 -0.48 -0.02 -0.13 0 0 -0.02 0.13 -0.1 0.48 0.23 0z"/>
  <polygon id="9" class="fil5" points="35.66,6.5 35.4,6.5 35.4,6.26 36.2,6.26 36.2,6.5 35.94,6.5 35.94,7.56 35.66,7.56 "/>
  <polygon id="10" class="fil5" points="37.29,6.26 37.29,7.56 36.92,7.56 36.56,6.53 36.59,6.81 36.59,7.56 36.32,7.56 36.32,6.26 36.68,6.26 37.04,7.27 37.02,7 37.02,6.26 "/>
  <path id="11" class="fil5" d="M38.09 7.32l-0.32 0 -0.05 0.24 -0.29 0 0.32 -1.3 0.36 0 0.32 1.3 -0.29 0 -0.05 -0.24zm-0.04 -0.23l-0.1 -0.48 -0.01 -0.13 -0.01 0 -0.02 0.13 -0.1 0.48 0.24 0z"/>
  <path id="12" class="fil5" d="M38.94 7.58c-0.15,0 -0.27,-0.04 -0.34,-0.12 -0.07,-0.08 -0.11,-0.19 -0.11,-0.33l0 -0.87 0.29 0 0 0.88c0,0.07 0.01,0.12 0.04,0.16 0.02,0.03 0.06,0.05 0.12,0.05 0.05,0 0.09,-0.02 0.12,-0.05 0.03,-0.04 0.04,-0.09 0.04,-0.16l0 -0.88 0.29 0 0 0.86c0,0.15 -0.04,0.26 -0.11,0.34 -0.08,0.08 -0.19,0.12 -0.34,0.12z"/>
  <path id="13" class="fil5" d="M39.65 7.58c-0.02,0 -0.05,0 -0.08,-0.01 -0.04,0 -0.07,0 -0.09,-0.01l0 -0.23c0.02,0.01 0.03,0.01 0.05,0.01 0.01,0 0.02,0 0.04,0 0.09,0 0.14,-0.06 0.14,-0.18l0 -0.9 0.29 0 0 0.93c0,0.09 -0.02,0.15 -0.05,0.21 -0.02,0.06 -0.06,0.1 -0.11,0.13 -0.06,0.03 -0.12,0.05 -0.19,0.05z"/>
  <polygon id="14" class="fil5" points="40.23,6.26 40.51,6.26 40.51,7.56 40.23,7.56 "/>
  <polygon id="15" class="fil5" points="41.72,6.26 41.72,7.56 41.35,7.56 41,6.53 41.02,6.81 41.02,7.56 40.75,7.56 40.75,6.26 41.12,6.26 41.48,7.27 41.45,7 41.45,6.26 "/>
  <path id="16" class="fil5" d="M42.53 7.32l-0.33 0 -0.05 0.24 -0.29 0 0.32 -1.3 0.36 0 0.32 1.3 -0.29 0 -0.04 -0.24zm-0.05 -0.23l-0.09 -0.48 -0.02 -0.13 -0.01 0 -0.01 0.13 -0.1 0.48 0.23 0z"/>
  <polygon id="17" class="fil5" points="43.01,6.26 43.45,6.26 43.64,7.26 43.82,6.26 44.26,6.26 44.26,7.56 43.98,7.56 43.97,6.97 44,6.49 43.99,6.49 43.75,7.56 43.52,7.56 43.28,6.49 43.27,6.49 43.3,6.97 43.3,7.56 43.01,7.56 "/>
  <path id="18" class="fil5" d="M45.07 7.32l-0.33 0 -0.05 0.24 -0.29 0 0.32 -1.3 0.36 0 0.32 1.3 -0.29 0 -0.04 -0.24zm-0.05 -0.23l-0.1 -0.48 -0.01 -0.13 -0.01 0 -0.01 0.13 -0.1 0.48 0.23 0z"/>
  <path id="19" class="fil5" d="M45.89 7.58c-0.07,0 -0.13,-0.01 -0.19,-0.04 -0.06,-0.02 -0.11,-0.06 -0.16,-0.12 -0.04,-0.06 -0.07,-0.13 -0.08,-0.23l0.23 -0.08c0.01,0.08 0.03,0.13 0.06,0.17 0.04,0.04 0.08,0.06 0.13,0.06 0.04,0 0.07,-0.01 0.09,-0.03 0.02,-0.03 0.04,-0.06 0.04,-0.11 0,-0.04 -0.01,-0.07 -0.03,-0.09 -0.01,-0.02 -0.03,-0.04 -0.06,-0.06 -0.02,-0.02 -0.06,-0.04 -0.11,-0.07 0,0 -0.01,0 -0.01,-0.01 -0.01,0 -0.01,0 -0.02,-0.01 -0.06,-0.03 -0.11,-0.06 -0.15,-0.09 -0.03,-0.02 -0.07,-0.06 -0.09,-0.1 -0.03,-0.05 -0.05,-0.1 -0.05,-0.16 0,-0.12 0.03,-0.21 0.1,-0.28 0.06,-0.06 0.15,-0.09 0.28,-0.09 0.09,0 0.17,0.02 0.24,0.07 0.08,0.05 0.12,0.13 0.14,0.24l-0.21 0.08c-0.01,-0.05 -0.03,-0.1 -0.05,-0.13 -0.03,-0.03 -0.07,-0.04 -0.11,-0.04 -0.04,0 -0.07,0.01 -0.09,0.03 -0.02,0.02 -0.03,0.05 -0.03,0.08 0,0.03 0,0.05 0.02,0.07 0.01,0.02 0.03,0.03 0.06,0.05 0.02,0.01 0.05,0.03 0.09,0.05 0.05,0.02 0.08,0.04 0.1,0.05 0.04,0.03 0.09,0.06 0.12,0.09 0.04,0.03 0.07,0.07 0.09,0.12 0.03,0.05 0.04,0.11 0.04,0.18 0,0.08 -0.01,0.15 -0.05,0.21 -0.03,0.06 -0.07,0.11 -0.13,0.14 -0.06,0.03 -0.13,0.05 -0.21,0.05z"/>
 </g>
</svg>
