<?xml version="1.0" encoding="UTF-8"?>
<!DOCTYPE svg PUBLIC "-//W3C//DTD SVG 1.1//EN" "http://www.w3.org/Graphics/SVG/1.1/DTD/svg11.dtd">
<!-- Creator: CorelDRAW 2019 (64-Bit) -->
<svg xmlns="http://www.w3.org/2000/svg" xml:space="preserve" width="19.0819in" height="12.6909in" version="1.1" style="shape-rendering:geometricPrecision; text-rendering:geometricPrecision; image-rendering:optimizeQuality; fill-rule:evenodd; clip-rule:evenodd"
viewBox="0 0 0.54231 0.36067"
 xmlns:xlink="http://www.w3.org/1999/xlink"
 xmlns:xodm="http://www.corel.com/coreldraw/odm/2003">
 <defs>
  <style type="text/css">
   @keyframes dash{
       to{
           stroke-dashoffset: 40;
       }
   }
    .tr01 {stroke:white;stroke-width:0.002;stroke-miterlimit:2.61313;
    stroke-dasharray: 0.39; animation: dash 200s linear infinite;}
    .fil0 {fill:black}
    .fil1 {fill:white}
    .fil5 {fill:#FEFEFE;fill-rule:nonzero}
    .fil3 {fill:#800C0A;fill-rule:nonzero}
    .fil4 {fill:#D60F0C;fill-rule:nonzero}
    .fil2 {fill:white;fill-rule:nonzero}
   
  </style>
 </defs>
 <g id="Layer_x0020_1">
  <metadata id="CorelCorpID_0Corel-Layer"/>
  <polygon class="fil0 tr01" points="0.18034,0.00014 0.27115,0.09096 0.36197,0.00014 0.54217,0.18034 0.36197,0.36053 0.27115,0.26972 0.18034,0.36053 0.00014,0.18034 "/>
  <g id="RI_10_x0020_metu.cdr">
   <g>
    <g>
     <path class="fil1" d="M0.11652 0.21445l0 -0.07311c0,-0.0129 0.01054,-0.02344 0.02344,-0.02344l0.07569 0c0.0129,0 0.02344,0.01054 0.02344,0.02344l0 0.01176 -0.01299 0 0 -0.01176c0,-0.00574 -0.00472,-0.01045 -0.01045,-0.01045l-0.07569 0c-0.00574,0 -0.01045,0.00472 -0.01045,0.01045l0 0.07311 -0.01299 0z"/>
     <path class="fil1" d="M0.13845 0.16307l0 0.02803c0,0.0129 0.01054,0.02344 0.02344,0.02344l0.07569 0c0.00064,0 0.00127,-0.00003 0.00189,-0.00008l0 -0.01308c-0.00061,0.00011 -0.00125,0.00017 -0.00189,0.00017l-0.07569 0c-0.00574,0 -0.01045,-0.00472 -0.01045,-0.01045l0 -0.02803 -0.01299 0z"/>
     <polygon class="fil1" points="0.13845,0.14718 0.13845,0.15874 0.15144,0.15874 0.15144,0.14718 "/>
    </g>
    <path class="fil2" d="M0.12418 0.22644l-0.00532 0 0 0.00283 0.00532 0c0.00036,0 0.00062,-0.00005 0.00077,-0.00013 0.0002,-0.00011 0.0003,-0.00034 0.0003,-0.00067l0 -0.00122c0,-0.00053 -0.00035,-0.0008 -0.00107,-0.0008zm-0.00766 0.00842l0 -0.01018 0.0087 0c0.00154,0 0.0023,0.00066 0.0023,0.00198l0 0.00239c0,0.00132 -0.00077,0.00198 -0.0023,0.00198l-0.00133 0 0.0047 0.00384 -0.0034 0 -0.0041 -0.00384 -0.00225 0 0 0.00384 -0.00233 0zm0.01581 0l0 -0.01018 0.01042 0 0 0.00174 -0.00805 0 0 0.00227 0.0047 0 0 0.00173 -0.0047 0 0 0.00252 0.00815 0 0 0.00192 -0.01052 0zm0.01489 0l0 -0.01018 0.00239 0 0 0.00425 0.00564 -0.00425 0.00343 0 -0.00674 0.0048 0.00757 0.00538 -0.0038 0 -0.00609 -0.00448 0 0.00448 -0.00239 0zm0.01566 0l0 -0.01018 0.00237 0 0 0.00826 0.00764 0 0 0.00192 -0.01001 0zm0.01574 -0.00406l0.00446 0 -0.0022 -0.00414 -0.00226 0.00414zm-0.00456 0.00406l0.00576 -0.01018 0.00228 0 0.00583 0.01018 -0.00266 0 -0.00122 -0.00223 -0.00645 0 -0.00118 0.00223 -0.00236 0zm0.01713 0l0 -0.01018 0.00192 0 0.0048 0.00615 0.00469 -0.00615 0.0019 0 0 0.01018 -0.0022 0 0 -0.00629c0,-0.00024 0.00003,-0.00061 0.00009,-0.00109 -0.00012,0.00026 -0.00032,0.00061 -0.00059,0.00107l-0.00382 0.00509 -0.00047 0 -0.00383 -0.0051c-0.00026,-0.00035 -0.00046,-0.0007 -0.0006,-0.00104 0.00004,0.00042 0.00006,0.00078 0.00006,0.00108l0 0.00629 -0.00192 0zm0.01807 -0.00777c0,-0.00094 0.00018,-0.00159 0.00056,-0.00193 0.00035,-0.00032 0.00101,-0.00048 0.00197,-0.00048l0.00749 0c0.00096,0 0.00161,0.00016 0.00197,0.00048 0.00037,0.00034 0.00056,0.00098 0.00056,0.00193l0 0.00536c0,0.00095 -0.00018,0.00159 -0.00054,0.00192 -0.00036,0.00033 -0.00102,0.00049 -0.00199,0.00049l-0.00749 0c-0.00096,0 -0.00162,-0.00016 -0.00198,-0.00049 -0.00036,-0.00033 -0.00054,-0.00097 -0.00054,-0.00192l0 -0.00536zm0.00237 0.00585l0.00781 0 0 -0.00644 -0.00781 0 0 0.00644zm0.02398 -0.00648l-0.00667 0 0 0.00219 0.00635 0c0.00096,0 0.00161,0.00016 0.00198,0.00048 0.00038,0.00034 0.00057,0.00098 0.00057,0.00193l0 0.0014c0,0.00094 -0.00018,0.00158 -0.00055,0.00191 -0.00037,0.00033 -0.00103,0.0005 -0.00199,0.0005l-0.00629 0c-0.00096,0 -0.00162,-0.00016 -0.00198,-0.00048 -0.00038,-0.00034 -0.00057,-0.00098 -0.00057,-0.00193l0 -0.00028 0.00209 -0.00043 0 0.0012 0.0072 0 0 -0.00232 -0.00635 0c-0.00096,0 -0.00161,-0.00016 -0.00197,-0.00048 -0.00037,-0.00034 -0.00056,-0.00098 -0.00056,-0.00192l0 -0.00113c0,-0.00094 0.00019,-0.00159 0.00056,-0.00193 0.00035,-0.00032 0.00101,-0.00048 0.00197,-0.00048l0.00578 0c0.0009,0 0.00153,0.00014 0.0019,0.00043 0.00042,0.00034 0.00062,0.00093 0.00062,0.0018l0 0.00021 -0.00209 0.00049 0 -0.00116zm-0.11909 0.02655l0 -0.01018 0.00237 0 0 0.01018 -0.00237 0zm0.00844 0l0 -0.01018 0.00162 0 0.00717 0.006c0.00049,0.00041 0.00088,0.00079 0.00116,0.0011l-0.00008 -0.00121c-0.00001,-0.00021 -0.00002,-0.00039 -0.00002,-0.00055l0 -0.00534 0.00213 0 0 0.01018 -0.00162 0 -0.00747 -0.00629c-0.00005,-0.00004 -0.0002,-0.00018 -0.00047,-0.00043 -0.00015,-0.00015 -0.00028,-0.00028 -0.00038,-0.00039 0.00007,0.00069 0.0001,0.00123 0.0001,0.00162l0 0.0055 -0.00213 0zm0.01954 0c-0.00096,0 -0.00162,-0.00016 -0.00198,-0.00049 -0.00036,-0.00033 -0.00054,-0.00097 -0.00054,-0.00192l0 -0.00211 0.00239 -0.00045 0 0.00305 0.00465 0 0 -0.00826 0.00237 0 0 0.00777c0,0.00094 -0.00018,0.00158 -0.00055,0.00191 -0.00036,0.00033 -0.00102,0.0005 -0.00198,0.0005l-0.00436 0zm0.01256 0l0 -0.01018 0.01042 0 0 0.00174 -0.00805 0 0 0.00227 0.0047 0 0 0.00173 -0.0047 0 0 0.00252 0.00815 0 0 0.00192 -0.01052 0zm0.01578 0l0 -0.01018 0.00239 0 0 0.00425 0.00564 -0.00425 0.00343 0 -0.00674 0.0048 0.00757 0.00538 -0.0038 0 -0.00609 -0.00448 0 0.00448 -0.00239 0zm0.02439 -0.00836l-0.00639 0 0 0.00644 0.00639 0 0 -0.00219 0.00237 0.00049 0 0.00121c0,0.00094 -0.00018,0.00158 -0.00054,0.00191 -0.00037,0.00033 -0.00102,0.0005 -0.00198,0.0005l-0.00608 0c-0.00096,0 -0.00162,-0.00016 -0.00198,-0.00049 -0.00036,-0.00033 -0.00054,-0.00097 -0.00054,-0.00192l0 -0.00536c0,-0.00094 0.00018,-0.00159 0.00056,-0.00193 0.00035,-0.00032 0.00101,-0.00048 0.00197,-0.00048l0.00608 0c0.00095,0 0.00161,0.00017 0.00197,0.0005 0.00037,0.00033 0.00055,0.00097 0.00055,0.00191l0 0.00096 -0.00237 0.00037 0 -0.00193zm0.00814 0.00836l0 -0.01018 0.00237 0 0 0.01018 -0.00237 0zm0.00994 0c-0.00096,0 -0.00162,-0.00016 -0.00198,-0.00049 -0.00036,-0.00033 -0.00054,-0.00097 -0.00054,-0.00192l0 -0.00211 0.00239 -0.00045 0 0.00305 0.00465 0 0 -0.00826 0.00237 0 0 0.00777c0,0.00094 -0.00018,0.00158 -0.00055,0.00191 -0.00036,0.00033 -0.00102,0.0005 -0.00198,0.0005l-0.00436 0zm0.01483 -0.00406l0.00446 0 -0.0022 -0.00414 -0.00226 0.00414zm-0.00456 0.00406l0.00576 -0.01018 0.00228 0 0.00583 0.01018 -0.00266 0 -0.00122 -0.00223 -0.00645 0 -0.00118 0.00223 -0.00236 0z"/>
   </g>
   <path class="fil2" d="M0.3524 0.12499c0.00604,-0.00236 0.01288,-0.00256 0.01914,-0.00098 0.00517,0.00113 0.00968,0.0044 0.01288,0.00854 0.00269,0.00348 0.00422,0.00773 0.00478,0.01207 0.00035,0.004 0.00037,0.00802 0.00028,0.01204 0.00003,0.00136 0.00004,0.00271 0.00004,0.00407l-0.01625 0.00543c0.00002,-0.00562 0,-0.01123 0.00001,-0.01686 -0.00001,-0.00295 -0.0006,-0.00614 -0.00272,-0.00834 -0.00232,-0.00239 -0.00593,-0.00303 -0.00911,-0.00252 -0.00239,0.00035 -0.00466,0.00164 -0.006,0.00368 -0.00152,0.0022 -0.00179,0.00495 -0.00178,0.00755 0.00002,0.00767 -0.00002,0.01535 0.00002,0.02302l-0.01627 0.00544c0.00001,-0.0091 0,-0.0182 0,-0.0273 -0.00005,-0.00394 0.00019,-0.00795 0.00153,-0.01169 0.00214,-0.00637 0.0072,-0.01166 0.01344,-0.01416z"/>
   <path class="fil2" d="M0.3228 0.12344c0.00378,-0.00002 0.00755,0 0.01132,-0.00001l0.00002 0.10696 -0.01626 0c0,-0.02795 -0.00002,-0.0559 0,-0.08384 -0.0061,-0.00003 -0.01221,0 -0.01831,-0.00002 0,-0.00377 -0.00001,-0.00755 0.00001,-0.01132 0.00684,-0.00047 0.01393,-0.00228 0.0192,-0.00689 0.00158,-0.00141 0.00301,-0.00301 0.00403,-0.00489z"/>
   <path class="fil3" d="M0.40683 0.18438l-0.00305 0.005c-0.00386,0.00135 -0.00772,0.00269 -0.0116,0.004l-0.00042 0.00014c0.00121,-0.00169 0.00219,-0.00353 0.00336,-0.00524l0.01171 -0.0039z"/>
   <path class="fil2" d="M0.37329 0.20168c0.00543,-0.00171 0.01078,-0.00364 0.01623,-0.00527 -0.00018,0.00667 0.00062,0.01353 -0.0014,0.02 -0.00184,0.00584 -0.00605,0.01087 -0.01148,0.01369 -0.00405,0.00212 -0.00866,0.00303 -0.01321,0.00294 -0.00596,0.00011 -0.0121,-0.00153 -0.01679,-0.00531 -0.00463,-0.00359 -0.00775,-0.00901 -0.0087,-0.01477l-0.00051 -0.00546c0.0023,-0.00075 0.00459,-0.00152 0.00689,-0.00229l0.00935 -0.00311c0.00011,0.00395 -0.00055,0.00838 0.00177,0.01186 0.00209,0.00323 0.00631,0.00428 0.00993,0.0037 0.00278,-0.00036 0.00542,-0.00204 0.00664,-0.00461 0.00177,-0.00352 0.00115,-0.00756 0.00128,-0.01135z"/>
   <polygon class="fil4" points="0.40686,0.15494 0.40683,0.18438 0.33743,0.20749 0.33743,0.17814 "/>
   <path class="fil4" d="M0.45291 0.17263c0.00528,-0.00203 0.0107,-0.00365 0.01601,-0.00558 -0.00387,0.00625 -0.00889,0.01227 -0.01303,0.01842l0.01307 0.01087 -0.07724 0.02571 0.00004 -0.02853c0.00842,-0.00283 0.01677,-0.00585 0.02518,-0.0087 0.00527,-0.00163 0.03073,-0.01044 0.03597,-0.01219z"/>
   <polygon class="fil5" points="0.34794,0.17805 0.35275,0.17645 0.35482,0.19014 0.3569,0.17507 0.3617,0.17347 0.3617,0.19222 0.35856,0.19326 0.35854,0.18476 0.35884,0.17784 0.35873,0.17788 0.35611,0.19408 0.35353,0.19494 0.35092,0.18048 0.35081,0.18051 0.35111,0.18721 0.35108,0.19575 0.34794,0.19679 "/>
   <polygon id="1" class="fil5" points="0.36521,0.17231 0.37255,0.16987 0.37255,0.17335 0.36836,0.17474 0.36836,0.17887 0.37207,0.17764 0.37207,0.18112 0.36836,0.18235 0.36836,0.18652 0.37255,0.18513 0.37255,0.18862 0.36521,0.19106 "/>
   <polygon id="2" class="fil5" points="0.37694,0.17188 0.37415,0.1728 0.37415,0.16934 0.38288,0.16643 0.38288,0.1699 0.38007,0.17083 0.38007,0.18611 0.37694,0.18716 "/>
   <path id="3" class="fil5" d="M0.39301 0.18111c-0.00101,0.00137 -0.00152,0.00248 -0.00152,0.00334 0,0.00031 0.00006,0.00053 0.00017,0.00067 0.00011,0.00013 0.00025,0.00017 0.00042,0.00011 0.00014,-0.00005 0.00028,-0.00015 0.00042,-0.00032 0.00015,-0.00017 0.00028,-0.0004 0.0004,-0.00067l0.00098 0.00095c-0.00047,0.00127 -0.00113,0.00205 -0.00201,0.00234 -0.0003,0.0001 -0.00061,0.0001 -0.00093,0.00002 -0.00032,-0.00009 -0.00058,-0.00032 -0.0008,-0.00068 -0.00021,-0.00036 -0.00032,-0.00087 -0.00032,-0.00154 0,-0.00078 0.0002,-0.00159 0.00059,-0.0024 -0.0001,0.00004 -0.00026,0.0001 -0.00048,0.00017 -0.00166,0.00055 -0.00289,0.00041 -0.00369,-0.00044 -0.0008,-0.00085 -0.0012,-0.00231 -0.0012,-0.0044l0 -0.01255 0.00314 -0.00104 0 0.01269c0,0.00105 0.00015,0.00178 0.00044,0.00218 0.00029,0.0004 0.00073,0.00051 0.00131,0.00031 0.0006,-0.0002 0.00106,-0.0006 0.00137,-0.0012 0.00031,-0.0006 0.00046,-0.00143 0.00046,-0.00248l0 -0.01269 0.00315 -0.00105 0 0.01242c0,0.00271 -0.00064,0.00479 -0.00191,0.00626z"/>
   <polygon class="fil5" points="0.40123,0.20554 0.40014,0.20678 0.40014,0.21435 0.39722,0.21532 0.39722,0.19765 0.40014,0.19668 0.40014,0.20372 0.40364,0.19552 0.40698,0.19441 0.40333,0.20254 0.40719,0.21201 0.40394,0.21309 "/>
   <path id="1" class="fil5" d="M0.41483 0.2062l-0.00337 0.00112 -0.00051 0.00344 -0.00301 0.001 0.0033 -0.01876 0.00375 -0.00124 0.0033 0.01657 -0.00297 0.00099 -0.00049 -0.0031zm-0.00046 -0.00291l-0.001 -0.00628 -0.00015 -0.00162 -0.00007 0.00002 -0.00018 0.00173 -0.00103 0.00695 0.00243 -0.00081z"/>
   <path id="2" class="fil5" d="M0.42649 0.20561l-0.00205 -0.00559 -0.0002 0.00007 -0.00103 0.00034 0 0.00625 -0.00295 0.00098 0 -0.01767 0.00416 -0.00138c0.00089,-0.0003 0.00166,-0.00032 0.00231,-0.00007 0.00065,0.00025 0.00115,0.00075 0.00149,0.0015 0.00034,0.00075 0.00052,0.00171 0.00052,0.00287 0,0.00108 -0.00016,0.00208 -0.00049,0.003 -0.00032,0.00092 -0.00078,0.00172 -0.00137,0.0024l0.00266 0.00628 -0.00305 0.00102zm-0.00237 -0.00833c0.00056,-0.00019 0.00099,-0.00058 0.00129,-0.00118 0.0003,-0.0006 0.00044,-0.00134 0.00044,-0.00222 0,-0.00086 -0.00015,-0.00147 -0.00044,-0.00184 -0.00029,-0.00037 -0.00071,-0.00047 -0.00126,-0.00029l-0.00094 0.00031 0 0.00552 0.0009 -0.0003z"/>
   <polygon id="3" class="fil5" points="0.43255,0.18918 0.42992,0.19005 0.42992,0.18678 0.43815,0.18405 0.43815,0.18731 0.43551,0.18819 0.43551,0.20259 0.43255,0.20358 "/>
   <path id="4" class="fil5" d="M0.4442 0.19996c-0.00156,0.00052 -0.00272,0.00038 -0.00347,-0.00042 -0.00075,-0.0008 -0.00113,-0.00218 -0.00113,-0.00414l0 -0.01182 0.00296 -0.00098 0 0.01196c0,0.00099 0.00014,0.00167 0.00041,0.00205 0.00028,0.00038 0.00069,0.00048 0.00123,0.0003 0.00057,-0.00019 0.001,-0.00057 0.00129,-0.00113 0.00029,-0.00057 0.00044,-0.00134 0.00044,-0.00233l0 -0.01196 0.00297 -0.00099 0 0.0117c0,0.00202 -0.00039,0.00368 -0.00115,0.005 -0.00077,0.00132 -0.00195,0.00224 -0.00355,0.00277z"/>
   <path id="5" class="fil5" d="M0.45171 0.17954l0.00257 -0.00085 -0.00022 0.01208 -0.00213 0.00071 -0.00022 -0.01194zm-0.0001 0.0139l0.00278 -0.00092 0 0.0038 -0.00278 0.00092 0 -0.0038z"/>
   <polygon class="fil2" points="0.2722,0.09096 0.2722,0.27062 0.27011,0.27062 0.27011,0.09096 "/>
  </g>
 </g>
</svg>
