<?xml version="1.0" encoding="UTF-8"?>
<!DOCTYPE svg PUBLIC "-//W3C//DTD SVG 1.1//EN" "http://www.w3.org/Graphics/SVG/1.1/DTD/svg11.dtd">
<!-- Creator: CorelDRAW 2019 (64-Bit) -->
<svg xmlns="http://www.w3.org/2000/svg" xml:space="preserve" width="2.56125in" height="1.70626in" version="1.1" style="shape-rendering:geometricPrecision; text-rendering:geometricPrecision; image-rendering:optimizeQuality; fill-rule:evenodd; clip-rule:evenodd"
viewBox="0 0 9.38 6.25"
 xmlns:xlink="http://www.w3.org/1999/xlink"
 xmlns:xodm="http://www.corel.com/coreldraw/odm/2003">
 <defs>
  <style type="text/css">
   <![CDATA[
    .str0 {stroke:#373435;stroke-width:0.03;stroke-miterlimit:2.61313}
    .fil0 {fill:black}
    .fil1 {fill:white}
    .fil5 {fill:#FEFEFE;fill-rule:nonzero}
    .fil3 {fill:#800C0A;fill-rule:nonzero}
    .fil4 {fill:#D60F0C;fill-rule:nonzero}
    .fil2 {fill:white;fill-rule:nonzero}
   ]]>
  </style>
 </defs>
 <g id="Layer_x0020_1">
  <metadata id="CorelCorpID_0Corel-Layer"/>
  <polygon class="fil0 str0" points="3.12,0.02 4.69,1.58 6.25,0.02 9.36,3.12 6.25,6.23 4.69,4.66 3.12,6.23 0.02,3.12 "/>
  <g id="RI_10_x0020_metu.cdr">
   <g>
    <g>
     <path class="fil1" d="M2.02 3.71l0 -1.26c0,-0.22 0.18,-0.4 0.4,-0.4l1.3 0c0.22,0 0.4,0.18 0.4,0.4l0 0.2 -0.22 0 0 -0.2c0,-0.1 -0.08,-0.18 -0.18,-0.18l-1.3 0c-0.1,0 -0.18,0.08 -0.18,0.18l0 1.26 -0.22 0z"/>
     <path class="fil1" d="M2.4 2.83l0 0.48c0,0.22 0.18,0.4 0.4,0.4l1.3 0c0.01,0 0.02,-0 0.03,-0l0 -0.23c-0.01,0 -0.02,0 -0.03,0l-1.3 0c-0.1,0 -0.18,-0.08 -0.18,-0.18l0 -0.48 -0.22 0z"/>
     <polygon class="fil1" points="2.4,2.55 2.4,2.75 2.62,2.75 2.62,2.55 "/>
    </g>
    <path class="fil2" d="M2.16 3.92l-0.09 0 0 0.05 0.09 0c0.01,0 0.01,-0 0.01,-0 0,-0 0.01,-0.01 0.01,-0.01l0 -0.02c0,-0.01 -0.01,-0.01 -0.02,-0.01zm-0.13 0.15l0 -0.18 0.15 0c0.03,0 0.04,0.01 0.04,0.03l0 0.04c0,0.02 -0.01,0.03 -0.04,0.03l-0.02 0 0.08 0.07 -0.06 0 -0.07 -0.07 -0.04 0 0 0.07 -0.04 0zm0.27 0l0 -0.18 0.18 0 0 0.03 -0.14 0 0 0.04 0.08 0 0 0.03 -0.08 0 0 0.04 0.14 0 0 0.03 -0.18 0zm0.26 0l0 -0.18 0.04 0 0 0.07 0.1 -0.07 0.06 0 -0.12 0.08 0.13 0.09 -0.07 0 -0.11 -0.08 0 0.08 -0.04 0zm0.27 0l0 -0.18 0.04 0 0 0.14 0.13 0 0 0.03 -0.17 0zm0.27 -0.07l0.08 0 -0.04 -0.07 -0.04 0.07zm-0.08 0.07l0.1 -0.18 0.04 0 0.1 0.18 -0.05 0 -0.02 -0.04 -0.11 0 -0.02 0.04 -0.04 0zm0.3 0l0 -0.18 0.03 0 0.08 0.11 0.08 -0.11 0.03 0 0 0.18 -0.04 0 0 -0.11c0,-0 0,-0.01 0,-0.02 -0,0 -0.01,0.01 -0.01,0.02l-0.07 0.09 -0.01 0 -0.07 -0.09c-0,-0.01 -0.01,-0.01 -0.01,-0.02 0,0.01 0,0.01 0,0.02l0 0.11 -0.03 0zm0.31 -0.13c0,-0.02 0,-0.03 0.01,-0.03 0.01,-0.01 0.02,-0.01 0.03,-0.01l0.13 0c0.02,0 0.03,0 0.03,0.01 0.01,0.01 0.01,0.02 0.01,0.03l0 0.09c0,0.02 -0,0.03 -0.01,0.03 -0.01,0.01 -0.02,0.01 -0.03,0.01l-0.13 0c-0.02,0 -0.03,-0 -0.03,-0.01 -0.01,-0.01 -0.01,-0.02 -0.01,-0.03l0 -0.09zm0.04 0.1l0.13 0 0 -0.11 -0.13 0 0 0.11zm0.41 -0.11l-0.11 0 0 0.04 0.11 0c0.02,0 0.03,0 0.03,0.01 0.01,0.01 0.01,0.02 0.01,0.03l0 0.02c0,0.02 -0,0.03 -0.01,0.03 -0.01,0.01 -0.02,0.01 -0.03,0.01l-0.11 0c-0.02,0 -0.03,-0 -0.03,-0.01 -0.01,-0.01 -0.01,-0.02 -0.01,-0.03l0 -0 0.04 -0.01 0 0.02 0.12 0 0 -0.04 -0.11 0c-0.02,0 -0.03,-0 -0.03,-0.01 -0.01,-0.01 -0.01,-0.02 -0.01,-0.03l0 -0.02c0,-0.02 0,-0.03 0.01,-0.03 0.01,-0.01 0.02,-0.01 0.03,-0.01l0.1 0c0.02,0 0.03,0 0.03,0.01 0.01,0.01 0.01,0.02 0.01,0.03l0 0 -0.04 0.01 0 -0.02zm-2.05 0.46l0 -0.18 0.04 0 0 0.18 -0.04 0zm0.15 0l0 -0.18 0.03 0 0.12 0.1c0.01,0.01 0.02,0.01 0.02,0.02l-0 -0.02c-0,-0 -0,-0.01 -0,-0.01l0 -0.09 0.04 0 0 0.18 -0.03 0 -0.13 -0.11c-0,-0 -0,-0 -0.01,-0.01 -0,-0 -0,-0 -0.01,-0.01 0,0.01 0,0.02 0,0.03l0 0.09 -0.04 0zm0.34 0c-0.02,0 -0.03,-0 -0.03,-0.01 -0.01,-0.01 -0.01,-0.02 -0.01,-0.03l0 -0.04 0.04 -0.01 0 0.05 0.08 0 0 -0.14 0.04 0 0 0.13c0,0.02 -0,0.03 -0.01,0.03 -0.01,0.01 -0.02,0.01 -0.03,0.01l-0.08 0zm0.22 0l0 -0.18 0.18 0 0 0.03 -0.14 0 0 0.04 0.08 0 0 0.03 -0.08 0 0 0.04 0.14 0 0 0.03 -0.18 0zm0.27 0l0 -0.18 0.04 0 0 0.07 0.1 -0.07 0.06 0 -0.12 0.08 0.13 0.09 -0.07 0 -0.11 -0.08 0 0.08 -0.04 0zm0.42 -0.14l-0.11 0 0 0.11 0.11 0 0 -0.04 0.04 0.01 0 0.02c0,0.02 -0,0.03 -0.01,0.03 -0.01,0.01 -0.02,0.01 -0.03,0.01l-0.1 0c-0.02,0 -0.03,-0 -0.03,-0.01 -0.01,-0.01 -0.01,-0.02 -0.01,-0.03l0 -0.09c0,-0.02 0,-0.03 0.01,-0.03 0.01,-0.01 0.02,-0.01 0.03,-0.01l0.1 0c0.02,0 0.03,0 0.03,0.01 0.01,0.01 0.01,0.02 0.01,0.03l0 0.02 -0.04 0.01 0 -0.03zm0.14 0.14l0 -0.18 0.04 0 0 0.18 -0.04 0zm0.17 0c-0.02,0 -0.03,-0 -0.03,-0.01 -0.01,-0.01 -0.01,-0.02 -0.01,-0.03l0 -0.04 0.04 -0.01 0 0.05 0.08 0 0 -0.14 0.04 0 0 0.13c0,0.02 -0,0.03 -0.01,0.03 -0.01,0.01 -0.02,0.01 -0.03,0.01l-0.08 0zm0.26 -0.07l0.08 0 -0.04 -0.07 -0.04 0.07zm-0.08 0.07l0.1 -0.18 0.04 0 0.1 0.18 -0.05 0 -0.02 -0.04 -0.11 0 -0.02 0.04 -0.04 0z"/>
   </g>
   <path class="fil2" d="M6.09 2.17c0.1,-0.04 0.22,-0.04 0.33,-0.02 0.09,0.02 0.17,0.08 0.22,0.15 0.05,0.06 0.07,0.13 0.08,0.21 0.01,0.07 0.01,0.14 0,0.21 0,0.02 0,0.05 0,0.07l-0.28 0.09c0,-0.1 0,-0.19 0,-0.29 -0,-0.05 -0.01,-0.11 -0.05,-0.14 -0.04,-0.04 -0.1,-0.05 -0.16,-0.04 -0.04,0.01 -0.08,0.03 -0.1,0.06 -0.03,0.04 -0.03,0.09 -0.03,0.13 0,0.13 -0,0.26 0,0.4l-0.28 0.09c0,-0.16 0,-0.31 0,-0.47 -0,-0.07 0,-0.14 0.03,-0.2 0.04,-0.11 0.12,-0.2 0.23,-0.24z"/>
   <path class="fil2" d="M5.58 2.14c0.07,-0 0.13,0 0.2,-0l0 1.84 -0.28 0c0,-0.48 -0,-0.96 0,-1.44 -0.11,-0 -0.21,0 -0.32,-0 0,-0.06 -0,-0.13 0,-0.2 0.12,-0.01 0.24,-0.04 0.33,-0.12 0.03,-0.02 0.05,-0.05 0.07,-0.08z"/>
   <path class="fil3" d="M7.03 3.19l-0.05 0.09c-0.07,0.02 -0.13,0.05 -0.2,0.07l-0.01 0c0.02,-0.03 0.04,-0.06 0.06,-0.09l0.2 -0.07z"/>
   <path class="fil2" d="M6.45 3.49c0.09,-0.03 0.19,-0.06 0.28,-0.09 -0,0.11 0.01,0.23 -0.02,0.34 -0.03,0.1 -0.1,0.19 -0.2,0.24 -0.07,0.04 -0.15,0.05 -0.23,0.05 -0.1,0 -0.21,-0.03 -0.29,-0.09 -0.08,-0.06 -0.13,-0.16 -0.15,-0.25l-0.01 -0.09c0.04,-0.01 0.08,-0.03 0.12,-0.04l0.16 -0.05c0,0.07 -0.01,0.14 0.03,0.2 0.04,0.06 0.11,0.07 0.17,0.06 0.05,-0.01 0.09,-0.04 0.11,-0.08 0.03,-0.06 0.02,-0.13 0.02,-0.2z"/>
   <polygon class="fil4" points="7.03,2.69 7.03,3.19 5.83,3.59 5.83,3.08 "/>
   <path class="fil4" d="M7.82 2.99c0.09,-0.03 0.18,-0.06 0.28,-0.1 -0.07,0.11 -0.15,0.21 -0.22,0.32l0.23 0.19 -1.33 0.44 0 -0.49c0.15,-0.05 0.29,-0.1 0.43,-0.15 0.09,-0.03 0.53,-0.18 0.62,-0.21z"/>
   <polygon class="fil5" points="6.01,3.08 6.09,3.06 6.13,3.29 6.17,3.03 6.25,3 6.25,3.33 6.19,3.35 6.19,3.2 6.2,3.08 6.2,3.08 6.15,3.36 6.11,3.37 6.06,3.13 6.06,3.13 6.07,3.24 6.06,3.39 6.01,3.41 "/>
   <polygon id="1" class="fil5" points="6.31,2.98 6.43,2.94 6.43,3 6.36,3.03 6.36,3.1 6.43,3.08 6.43,3.14 6.36,3.16 6.36,3.23 6.43,3.21 6.43,3.27 6.31,3.31 "/>
   <polygon id="2" class="fil5" points="6.51,2.98 6.46,2.99 6.46,2.93 6.61,2.88 6.61,2.94 6.56,2.96 6.56,3.22 6.51,3.24 "/>
   <path id="3" class="fil5" d="M6.79 3.14c-0.02,0.02 -0.03,0.04 -0.03,0.06 0,0.01 0,0.01 0,0.01 0,0 0,0 0.01,0 0,-0 0,-0 0.01,-0.01 0,-0 0,-0.01 0.01,-0.01l0.02 0.02c-0.01,0.02 -0.02,0.04 -0.03,0.04 -0.01,0 -0.01,0 -0.02,0 -0.01,-0 -0.01,-0.01 -0.01,-0.01 -0,-0.01 -0.01,-0.02 -0.01,-0.03 0,-0.01 0,-0.03 0.01,-0.04 -0,0 -0,0 -0.01,0 -0.03,0.01 -0.05,0.01 -0.06,-0.01 -0.01,-0.01 -0.02,-0.04 -0.02,-0.08l0 -0.22 0.05 -0.02 0 0.22c0,0.02 0,0.03 0.01,0.04 0.01,0.01 0.01,0.01 0.02,0.01 0.01,-0 0.02,-0.01 0.02,-0.02 0.01,-0.01 0.01,-0.02 0.01,-0.04l0 -0.22 0.05 -0.02 0 0.21c0,0.05 -0.01,0.08 -0.03,0.11z"/>
   <polygon class="fil5" points="6.93,3.56 6.91,3.58 6.91,3.71 6.86,3.73 6.86,3.42 6.91,3.4 6.91,3.53 6.97,3.38 7.03,3.37 6.97,3.51 7.03,3.67 6.98,3.69 "/>
   <path id="1" class="fil5" d="M7.16 3.57l-0.06 0.02 -0.01 0.06 -0.05 0.02 0.06 -0.32 0.06 -0.02 0.06 0.29 -0.05 0.02 -0.01 -0.05zm-0.01 -0.05l-0.02 -0.11 -0 -0.03 -0 0 -0 0.03 -0.02 0.12 0.04 -0.01z"/>
   <path id="2" class="fil5" d="M7.36 3.56l-0.04 -0.1 -0 0 -0.02 0.01 0 0.11 -0.05 0.02 0 -0.3 0.07 -0.02c0.02,-0.01 0.03,-0.01 0.04,-0 0.01,0 0.02,0.01 0.03,0.03 0.01,0.01 0.01,0.03 0.01,0.05 0,0.02 -0,0.04 -0.01,0.05 -0.01,0.02 -0.01,0.03 -0.02,0.04l0.05 0.11 -0.05 0.02zm-0.04 -0.14c0.01,-0 0.02,-0.01 0.02,-0.02 0.01,-0.01 0.01,-0.02 0.01,-0.04 0,-0.01 -0,-0.03 -0.01,-0.03 -0.01,-0.01 -0.01,-0.01 -0.02,-0l-0.02 0.01 0 0.1 0.02 -0.01z"/>
   <polygon id="3" class="fil5" points="7.47,3.28 7.42,3.29 7.42,3.23 7.57,3.19 7.57,3.24 7.52,3.26 7.52,3.51 7.47,3.52 "/>
   <path id="4" class="fil5" d="M7.67 3.46c-0.03,0.01 -0.05,0.01 -0.06,-0.01 -0.01,-0.01 -0.02,-0.04 -0.02,-0.07l0 -0.2 0.05 -0.02 0 0.21c0,0.02 0,0.03 0.01,0.04 0,0.01 0.01,0.01 0.02,0.01 0.01,-0 0.02,-0.01 0.02,-0.02 0.01,-0.01 0.01,-0.02 0.01,-0.04l0 -0.21 0.05 -0.02 0 0.2c0,0.03 -0.01,0.06 -0.02,0.09 -0.01,0.02 -0.03,0.04 -0.06,0.05z"/>
   <path id="5" class="fil5" d="M7.8 3.11l0.04 -0.01 -0 0.21 -0.04 0.01 -0 -0.21zm-0 0.24l0.05 -0.02 0 0.07 -0.05 0.02 0 -0.07z"/>
   <polygon class="fil2" points="4.71,1.58 4.71,4.68 4.67,4.68 4.67,1.58 "/>
  </g>
 </g>
</svg>
